<?xml version="1.0" encoding="UTF-8"?>
<svg width="1000px" height="1000px" viewBox="0 0 1000 1000" version="1.1" xmlns="http://www.w3.org/2000/svg" xmlns:xlink="http://www.w3.org/1999/xlink">
    <title>Logo Light</title>
    <g id="Logo-Light" stroke="none" stroke-width="1" fill="none" fill-rule="evenodd">
        <g>
            <rect id="Rectangle" fill="#FFFFFF" x="0" y="0" width="1000" height="1000"></rect>
            <polygon id="Path" fill="#000000" fill-rule="nonzero" points="374.97 148.98 453.6 103 453.6 784.7 374.92 830.71 374.97 148.98"></polygon>
            <polygon id="Path" fill="#000000" fill-rule="nonzero" points="260 213.96 338.68 167.95 338.68 851.32 260 897.33 260 213.96"></polygon>
            <polygon id="Path" fill="#4A4A49" points="453.6 445.77 374.92 491.78 546.46 602.87 625.14 556.86 453.6 445.77"></polygon>
            <path d="M625.14,436.69 L623.24,613.78 L544.56,659.79 C544.56,471.05 546.46,674.55 546.46,485.81 C546.58,481.07 552.29,396.74 485.08,357.9 L260,213.95 L338.68,167.94 C419.99,219.94 484.41,261.14 565.72,313.14 C626.81,351.58 625.14,436.68 625.14,436.68 L625.14,436.68 L625.14,436.69 Z" id="Path" fill="#4A4A49"></path>
            <polygon id="Path" fill="#FFFFFF" points="453.6 542.74 453.6 586.2 374.92 535.88 374.94 491.8 453.6 542.74"></polygon>
            <polygon id="Path" fill="#FFFFFF" points="453.66 199.37 453.6 241.44 374.97 191.16 374.97 148.98 453.66 199.37"></polygon>
            <polygon id="Path" fill="#4A4A49" points="338.68 512.7 260 558.71 479.23 699.47 557.91 653.45 338.68 512.7"></polygon>
            <path d="M525.93,703.74 C552.73,688.92 579.57,674.16 606.37,659.34 C618.71,650.5 623.52,632.15 623.37,612.45 L476.8,697.69 L479.54,699.45 C496.1,709.02 512.97,711.22 525.94,703.73 L525.94,703.73 L525.93,703.74 Z" id="Path" fill="#4A4A49"></path>
            <path d="M640.88,639.8 L722.08,595.13 C733.49,586.05 738.28,568.56 738.19,549.64 C739.01,489.77 739.42,430.97 740.06,371.74 C740.06,371.74 741.73,286.64 680.64,248.2 C599.33,196.2 534.91,155 453.6,103 L374.92,149.01 L600,292.96 C667.21,331.8 661.5,416.13 661.38,420.87 C661.38,474.53 660.32,527.61 659.52,581.61 C660.63,608.9 652.47,633.12 640.88,639.81 L640.88,639.81 L640.88,639.8 Z" id="Path" fill="#FFFFFF"></path>
            <path d="M640.88,639.8 L722.08,595.13 C733.49,586.05 738.28,568.56 738.19,549.64 C739.01,489.77 739.42,430.97 740.06,371.74 C740.06,371.74 741.73,286.64 680.64,248.2 C599.33,196.2 534.91,155 453.6,103 L374.92,149.01 L600,292.96 C667.21,331.8 661.5,416.13 661.38,420.87 C661.38,474.53 660.32,527.61 659.52,581.61 C660.63,608.9 652.47,633.12 640.88,639.81 L640.88,639.81 L640.88,639.8 Z" id="Path" stroke="#000000" stroke-width="0.67" fill="#4A4A49"></path>
        </g>
    </g>
</svg>